<svg xmlns="http://www.w3.org/2000/svg" width="203.165" height="41.078" viewBox="0 0 203.165 41.078">
  <g id="Tattvam_HLogo_Color_SVG" transform="translate(-16.52 -19.77)">
    <g id="Group_1983" data-name="Group 1983" transform="translate(16.52 19.77)">
      <path id="Path_1432" data-name="Path 1432" d="M411.351,64.568V59.19h25.593v5.378H427.4v25.87h-6.5V64.568H411.35Z" transform="translate(-362.792 -54.342)" fill="#fff"/>
      <path id="Path_1433" data-name="Path 1433" d="M577.042,127.387h-5.994a8.027,8.027,0,0,1,2.8-5.8q2.583-2.252,7.9-2.253a16.841,16.841,0,0,1,4.167.478,7.206,7.206,0,0,1,2.784,1.232,4.906,4.906,0,0,1,1.4,1.923,9.37,9.37,0,0,1,.68,3.805l-.021,11.84a6.591,6.591,0,0,0,.362,2.72,1.74,1.74,0,0,0,1.042.893v.957H585.5a7.212,7.212,0,0,1-.574-2.7,11.9,11.9,0,0,1-3.444,2.668,9.038,9.038,0,0,1-3.805.733,8.588,8.588,0,0,1-3.954-.872,5.62,5.62,0,0,1-2.508-2.53,7.883,7.883,0,0,1-.829-3.571,7.662,7.662,0,0,1,1.52-4.847q1.52-1.955,5.6-2.573l5.1-.765a2.992,2.992,0,0,0,1.69-.627,1.68,1.68,0,0,0,.458-1.243,2.409,2.409,0,0,0-.84-1.955,4.421,4.421,0,0,0-2.816-.7,4.729,4.729,0,0,0-2.9.7,3.933,3.933,0,0,0-1.159,2.487Zm7.716,4.485a10.781,10.781,0,0,1-1.52.648,17.872,17.872,0,0,1-1.967.5,22.164,22.164,0,0,0-2.933.68,3.232,3.232,0,0,0-1.467,1.106,2.937,2.937,0,0,0-.49,1.722,2.917,2.917,0,0,0,3.061,3.082,5.8,5.8,0,0,0,3.656-1.3,4.886,4.886,0,0,0,1.658-4.1v-2.338Z" transform="translate(-502.272 -107.086)" fill="#fff"/>
      <path id="Path_1434" data-name="Path 1434" d="M764.261,84.637H761.03V80.3h3.231V74.05H770.3V80.3h3.741v4.336H770.3V97.072a4.387,4.387,0,0,0,.149,1.435.977.977,0,0,0,.6.52,6.219,6.219,0,0,0,1.828.17q.489,0,1.17-.064v4.528q-1.893.127-2.912.128a13.3,13.3,0,0,1-4.252-.489,3.863,3.863,0,0,1-1.967-1.477,4.938,4.938,0,0,1-.648-2.732V84.637Z" transform="translate(-669.466 -67.374)" fill="#fff"/>
      <path id="Path_1435" data-name="Path 1435" d="M882.131,84.637H878.9V80.3h3.231V74.05h6.037V80.3h3.741v4.336h-3.741V97.072a4.387,4.387,0,0,0,.149,1.435.976.976,0,0,0,.6.52,6.219,6.219,0,0,0,1.828.17q.489,0,1.17-.064v4.528q-1.893.127-2.912.128a13.305,13.305,0,0,1-4.252-.489,3.864,3.864,0,0,1-1.967-1.477,4.939,4.939,0,0,1-.648-2.732V84.637Z" transform="translate(-772.84 -67.374)" fill="#fff"/>
      <path id="Path_1436" data-name="Path 1436" d="M997.82,124.87h6.8l4.847,17.069,4.932-17.069h6.5l-8.375,23.17h-6.4l-8.311-23.17Z" transform="translate(-877.135 -111.944)" fill="#fff"/>
      <path id="Path_1437" data-name="Path 1437" d="M1196.332,127.387h-5.994a8.028,8.028,0,0,1,2.8-5.8q2.583-2.252,7.9-2.253a16.84,16.84,0,0,1,4.167.478,7.207,7.207,0,0,1,2.784,1.232,4.909,4.909,0,0,1,1.4,1.923,9.372,9.372,0,0,1,.68,3.805l-.021,11.84a6.588,6.588,0,0,0,.362,2.72,1.736,1.736,0,0,0,1.042.893v.957h-6.653a7.212,7.212,0,0,1-.574-2.7,11.894,11.894,0,0,1-3.444,2.668,9.038,9.038,0,0,1-3.805.733,8.587,8.587,0,0,1-3.954-.872,5.62,5.62,0,0,1-2.508-2.53,7.881,7.881,0,0,1-.829-3.571,7.662,7.662,0,0,1,1.52-4.847q1.52-1.955,5.6-2.573l5.1-.765a2.992,2.992,0,0,0,1.69-.627,1.68,1.68,0,0,0,.458-1.243,2.408,2.408,0,0,0-.84-1.955,4.42,4.42,0,0,0-2.816-.7,4.729,4.729,0,0,0-2.9.7,3.934,3.934,0,0,0-1.159,2.487Zm7.717,4.485a10.781,10.781,0,0,1-1.52.648,17.873,17.873,0,0,1-1.967.5,22.157,22.157,0,0,0-2.933.68,3.232,3.232,0,0,0-1.467,1.106,2.938,2.938,0,0,0-.489,1.722,2.917,2.917,0,0,0,3.061,3.082,5.8,5.8,0,0,0,3.656-1.3,4.886,4.886,0,0,0,1.658-4.1v-2.338Z" transform="translate(-1045.398 -107.086)" fill="#fff"/>
      <path id="Path_1438" data-name="Path 1438" d="M1432.595,143.191h-6.036V128.523a4.37,4.37,0,0,0-.914-3.061,3.321,3.321,0,0,0-2.551-.978,3.806,3.806,0,0,0-2.924,1.2,5.162,5.162,0,0,0-1.115,3.624v13.881h-6.037V129.31a9.437,9.437,0,0,0-.307-2.752,2.825,2.825,0,0,0-1.148-1.509,4.073,4.073,0,0,0-5.282,1.01,5.845,5.845,0,0,0-.723,3.252v13.881h-6.037V120.02h5.845v3.423a8.02,8.02,0,0,1,2.359-2.827,8.205,8.205,0,0,1,7.154-.8,5.9,5.9,0,0,1,2.051,1.307,10.4,10.4,0,0,1,1.488,2.019,8.149,8.149,0,0,1,2.763-2.827,8.584,8.584,0,0,1,7.568-.192,6.992,6.992,0,0,1,2.349,1.923,6.58,6.58,0,0,1,1.181,2.541,18.7,18.7,0,0,1,.318,3.932v14.667Z" transform="translate(-1229.432 -107.094)" fill="#fff"/>
      <path id="Path_1439" data-name="Path 1439" d="M35.819,19.77A19.3,19.3,0,0,0,24.257,54.523l-.046-.117.7-2.686.044-.171c.135-.209.284-.443.444-.7A15.689,15.689,0,0,1,20.09,39.069a16.05,16.05,0,0,1,5.8-12.194A15.726,15.726,0,0,1,47.859,28.95q.328.251.638.493a30.278,30.278,0,0,1,5.362,5.012,5.867,5.867,0,0,0,.913.967A19.3,19.3,0,0,0,35.819,19.77Z" transform="translate(-16.52 -19.77)" fill="#fff"/>
      <g id="Group_1982" data-name="Group 1982" transform="translate(7.689 3.287)">
        <path id="Path_1440" data-name="Path 1440" d="M111.6,67.98a4,4,0,0,1-.588-1.427,6.8,6.8,0,0,0,2.9,1.973,29.368,29.368,0,0,0,6,.252,8.333,8.333,0,0,1-3.316-.882c-.244-.119-.464-.24-.665-.36h0c-3.342-1.4-4.068-5.339-4.068-5.339a3.371,3.371,0,0,0,.461.839,3.713,3.713,0,0,0,.924.861,1.272,1.272,0,0,0,.209-1.092,5.265,5.265,0,0,0-1.952-2.6,8.291,8.291,0,0,1-1.711-1.208c-.068-.043-.129-.087-.191-.134a5.87,5.87,0,0,1-.913-.967,30.277,30.277,0,0,0-5.362-5.012c-.207-.161-.348-.389-.568-.556-.277-.212-.823-.769-.823-.769-1.718-2.6-9.614-7.5-17.192-3.613-.039.01-.085.023-.137.038a15.711,15.711,0,0,0-3.892,2.332,4.039,4.039,0,0,1,1.455.406,35.434,35.434,0,0,0,6.328,1.2c.651,0,.684.069.684.069s.753-1.607,1.984-1.471S92.5,53.182,92.5,53.182A24.158,24.158,0,0,1,95.749,56.7a3.381,3.381,0,0,1,.718,2.12l2.839,2.633s.975.582.872.941a7.112,7.112,0,0,1-1.35,2.12,5.262,5.262,0,0,0-.941-.24,1.807,1.807,0,0,0-.7.119,4.755,4.755,0,0,1,.751.257.549.549,0,0,1,.223.223,3.721,3.721,0,0,1-.855.582,18.7,18.7,0,0,1-2.668-.376c-.651-.034-.787.513-1.266.787a3.378,3.378,0,0,1-1.129.342s-.172-.547-.411-.582-1.129-.137-1.129-.137l-.411-.034-1.642-.273a8.217,8.217,0,0,1-2.051,1.06,2.617,2.617,0,0,0-1.573.855c-1.22,1.59-2.462,3.5-3.508,5.148-.476.753-.913,1.451-1.286,2.043-.16.253-.309.487-.444.7l-.044.171-.7,2.686.046.117,1.493,3.794-.316,2.118.218.322a.163.163,0,0,0,.05.074h0a.088.088,0,0,0,.055.018h5.357l-.351-1.674-.659-1.67L83.86,78.227l.311-.614.319-.63,1.224-2.418.978-1.931a.576.576,0,0,1,.341-.037c.617.1,1.237.182,1.858.253a5.538,5.538,0,0,0,.77.017,6.154,6.154,0,0,0,1.721-.223.814.814,0,0,1,.348-.037l1.516.792L92.3,75.348l-.042.085-.824.278-.273-.164-.414-.111-1.017-.271-.069.223-.852,2.74-.181.583-.2.647,1.4.505,1.156-.648,3.477-.64.09-.16.442-.788,2.027-3.621.922-1.649L96.5,70.489l2.181-1.29,1.9,1.275.608.608.546.546s.075.9.082,1.954v.187a1.466,1.466,0,0,0,.466.9,9.07,9.07,0,0,0,2.006,1.487c.232.134.384.212.384.212l1.47-.167s.168-.462.546-1.6,2.308-2.875,3.651-3.589a5.476,5.476,0,0,0,2.058-2.183,5.925,5.925,0,0,1-.8-.861Zm-2.665,1.166a1.573,1.573,0,0,1-.692-1.459l.178-.913a2.52,2.52,0,0,1,.747,1.192c0,.026.007.052.009.077a2.228,2.228,0,0,1-.241,1.1Z" transform="translate(-79.04 -46.498)" fill="#fff"/>
        <path id="Path_1441" data-name="Path 1441" d="M354.88,231.41c1.1,1.664,4.889,1.621,6.234,1.344a6.656,6.656,0,0,1-3.281-1.015,6.944,6.944,0,0,1-2.952-.328Z" transform="translate(-320.956 -208.669)" fill="#fff"/>
      </g>
      <path id="Path_1442" data-name="Path 1442" d="M196.4,142.619a.805.805,0,0,0,.735-.223,1.731,1.731,0,0,0-.82-.53c-.376-.034-1.008-.017-1.008-.017s.564.718,1.095.77Z" transform="translate(-173.321 -126.832)" fill="#fff"/>
      <path id="Path_1443" data-name="Path 1443" d="M35.819,19.77A19.3,19.3,0,0,0,24.257,54.523l-.046-.117.7-2.686.044-.171c.135-.209.284-.443.444-.7A15.689,15.689,0,0,1,20.09,39.069a16.05,16.05,0,0,1,5.8-12.194A15.726,15.726,0,0,1,47.859,28.95q.328.251.638.493a30.278,30.278,0,0,1,5.362,5.012,5.867,5.867,0,0,0,.913.967A19.3,19.3,0,0,0,35.819,19.77Z" transform="translate(-16.52 -19.77)" fill="#fff"/>
    </g>
    <path id="Path_1444" data-name="Path 1444" d="M354.88,231.41c1.1,1.664,4.889,1.621,6.234,1.344a6.656,6.656,0,0,1-3.281-1.015,6.944,6.944,0,0,1-2.952-.328Z" transform="translate(-296.747 -185.611)" fill="#fff"/>
  </g>
</svg>
