<svg xmlns="http://www.w3.org/2000/svg" width="41" height="41" viewBox="0 0 41.078 41.078">
  <g transform="translate(-16.52 -19.77)">
    <path d="M35.819,19.77A19.3,19.3,0,0,0,24.257,54.523l-.046-.117.7-2.686.044-.171c.135-.209.284-.443.444-.7A15.689,15.689,0,0,1,20.09,39.069a16.05,16.05,0,0,1,5.8-12.194A15.726,15.726,0,0,1,47.859,28.95q.328.251.638.493a30.278,30.278,0,0,1,5.362,5.012,5.867,5.867,0,0,0,.913.967A19.3,19.3,0,0,0,35.819,19.77Z" fill="#1a2744"/>
    <g transform="translate(24.209 23.057)">
      <path d="M111.6,67.98a4,4,0,0,1-.588-1.427,6.8,6.8,0,0,0,2.9,1.973,29.368,29.368,0,0,0,6,.252,8.333,8.333,0,0,1-3.316-.882c-.244-.119-.464-.24-.665-.36h0c-3.342-1.4-4.068-5.339-4.068-5.339a3.371,3.371,0,0,0,.461.839,3.713,3.713,0,0,0,.924.861,1.272,1.272,0,0,0,.209-1.092,5.265,5.265,0,0,0-1.952-2.6,8.291,8.291,0,0,1-1.711-1.208c-.068-.043-.129-.087-.191-.134a5.87,5.87,0,0,1-.913-.967,30.277,30.277,0,0,0-5.362-5.012c-.207-.161-.348-.389-.568-.556-.277-.212-.823-.769-.823-.769-1.718-2.6-9.614-7.5-17.192-3.613-.039.01-.085.023-.137.038a15.711,15.711,0,0,0-3.892,2.332,4.039,4.039,0,0,1,1.455.406,35.434,35.434,0,0,0,6.328,1.2c.651,0,.684.069.684.069s.753-1.607,1.984-1.471S92.5,53.182,92.5,53.182A24.158,24.158,0,0,1,95.749,56.7a3.381,3.381,0,0,1,.718,2.12l2.839,2.633s.975.582.872.941a7.112,7.112,0,0,1-1.35,2.12,5.262,5.262,0,0,0-.941-.24,1.807,1.807,0,0,0-.7.119,4.755,4.755,0,0,1,.751.257.549.549,0,0,1,.223.223,3.721,3.721,0,0,1-.855.582,18.7,18.7,0,0,1-2.668-.376c-.651-.034-.787.513-1.266.787a3.378,3.378,0,0,1-1.129.342s-.172-.547-.411-.582-1.129-.137-1.129-.137l-.411-.034-1.642-.273a8.217,8.217,0,0,1-2.051,1.06,2.617,2.617,0,0,0-1.573.855c-1.22,1.59-2.462,3.5-3.508,5.148-.476.753-.913,1.451-1.286,2.043-.16.253-.309.487-.444.7l-.044.171-.7,2.686.046.117,1.493,3.794-.316,2.118.218.322a.163.163,0,0,0,.05.074h0a.088.088,0,0,0,.055.018h5.357l-.351-1.674-.659-1.67L83.86,78.227l.311-.614.319-.63,1.224-2.418.978-1.931a.576.576,0,0,1,.341-.037c.617.1,1.237.182,1.858.253a5.538,5.538,0,0,0,.77.017,6.154,6.154,0,0,0,1.721-.223.814.814,0,0,1,.348-.037l1.516.792L92.3,75.348l-.042.085-.824.278-.273-.164-.414-.111-1.017-.271-.069.223-.852,2.74-.181.583-.2.647,1.4.505,1.156-.648,3.477-.64.09-.16.442-.788,2.027-3.621.922-1.649L96.5,70.489l2.181-1.29,1.9,1.275.608.608.546.546s.075.9.082,1.954v.187a1.466,1.466,0,0,0,.466.9,9.07,9.07,0,0,0,2.006,1.487c.232.134.384.212.384.212l1.47-.167s.168-.462.546-1.6,2.308-2.875,3.651-3.589a5.476,5.476,0,0,0,2.058-2.183,5.925,5.925,0,0,1-.8-.861Zm-2.665,1.166a1.573,1.573,0,0,1-.692-1.459l.178-.913a2.52,2.52,0,0,1,.747,1.192c0,.026.007.052.009.077a2.228,2.228,0,0,1-.241,1.1Z" transform="translate(-79.04 -46.498)" fill="#6ec6ce"/>
      <path d="M354.88,231.41c1.1,1.664,4.889,1.621,6.234,1.344a6.656,6.656,0,0,1-3.281-1.015,6.944,6.944,0,0,1-2.952-.328Z" transform="translate(-320.956 -208.669)" fill="#6ec6ce"/>
    </g>
    <path d="M196.4,142.619a.805.805,0,0,0,.735-.223,1.731,1.731,0,0,0-.82-.53c-.376-.034-1.008-.017-1.008-.017s.564.718,1.095.77Z" transform="translate(-173.321 -126.832)" fill="#6ec6ce"/>
    <path d="M35.819,19.77A19.3,19.3,0,0,0,24.257,54.523l-.046-.117.7-2.686.044-.171c.135-.209.284-.443.444-.7A15.689,15.689,0,0,1,20.09,39.069a16.05,16.05,0,0,1,5.8-12.194A15.726,15.726,0,0,1,47.859,28.95q.328.251.638.493a30.278,30.278,0,0,1,5.362,5.012,5.867,5.867,0,0,0,.913.967A19.3,19.3,0,0,0,35.819,19.77Z" fill="#1a2744"/>
    <path d="M354.88,231.41c1.1,1.664,4.889,1.621,6.234,1.344a6.656,6.656,0,0,1-3.281-1.015,6.944,6.944,0,0,1-2.952-.328Z" transform="translate(-296.747 -185.611)" fill="#6ec6ce"/>
  </g>
</svg>
